<svg xmlns="http://www.w3.org/2000/svg" width="50" height="50"><defs><clipPath id="a"><path fill="#fff" d="M0 25C0 11.193 11.193 0 25 0s25 11.193 25 25-11.193 25-25 25S0 38.807 0 25z"/></clipPath></defs><path fill="none" stroke="#000" stroke-miterlimit="20" stroke-opacity=".2" stroke-width="2" d="M0 25C0 11.193 11.193 0 25 0h0c13.807 0 25 11.193 25 25v0c0 13.807-11.193 25-25 25h0C11.193 50 0 38.807 0 25z" clip-path="url(&quot;#a&quot;)"/><path fill-opacity=".2" d="M24 16v9.586l-3.293-3.293a1 1 0 00-1.414 1.414l5 5a1 1 0 001.414 0l5-5a1 1 0 00-1.414-1.414L26 25.586V16a1 1 0 10-2 0zm-9 10v4a5 5 0 005 5h10a5 5 0 005-5v-4a1 1 0 10-2 0v4a3 3 0 01-3 3H20a3 3 0 01-3-3v-4a1 1 0 10-2 0z"/></svg>