<svg xmlns="http://www.w3.org/2000/svg" width="60" height="60"><path fill="#f68634" d="M0 30C0 13.431 13.431 0 30 0c16.569 0 30 13.431 30 30 0 16.569-13.431 30-30 30C13.431 60 0 46.569 0 30z"/><path fill="#fff" d="M33.3 22.742c0-1.767-1.49-3.205-3.32-3.205-1.83 0-3.321 1.438-3.321 3.205 0 1.766 1.49 3.204 3.32 3.204 1.832 0 3.321-1.438 3.321-3.204zm4.7 0c0 4.268-3.596 7.74-8.02 7.74-4.423 0-8.02-3.472-8.02-7.74 0-4.27 3.597-7.742 8.02-7.742 4.424 0 8.02 3.473 8.02 7.742zm-.098 12.197a15.332 15.332 0 01-4.657 1.861l4.483 4.329a2.21 2.21 0 010 3.207 2.407 2.407 0 01-3.32 0l-4.409-4.253-4.404 4.253a2.39 2.39 0 01-1.663.664c-.6 0-1.201-.222-1.66-.664a2.213 2.213 0 01-.001-3.207l4.483-4.329a15.355 15.355 0 01-4.657-1.861c-1.097-.668-1.427-2.067-.735-3.127.69-1.063 2.14-1.382 3.239-.714 3.283 1.994 7.513 1.994 10.798 0 1.1-.668 2.549-.349 3.24.713.691 1.06.36 2.46-.737 3.128z"/></svg>